<mxfile host="Electron" agent="Mozilla/5.0 (Macintosh; Intel Mac OS X 10_15_7) AppleWebKit/537.36 (KHTML, like Gecko) draw.io/26.1.1 Chrome/132.0.6834.210 Electron/34.3.3 Safari/537.36" version="26.1.1">
  <diagram name="Page-1" id="-H_mtQnk-PTXWXPvYvuk">
    <mxGraphModel dx="384" dy="1098" grid="1" gridSize="10" guides="1" tooltips="1" connect="1" arrows="1" fold="1" page="1" pageScale="1" pageWidth="1169" pageHeight="827" math="0" shadow="0">
      <root>
        <mxCell id="0" />
        <mxCell id="1" parent="0" />
        <mxCell id="FnQT5Xd33c4sn3bjLJ9c-169" style="edgeStyle=orthogonalEdgeStyle;rounded=0;orthogonalLoop=1;jettySize=auto;html=1;" edge="1" parent="1" source="FnQT5Xd33c4sn3bjLJ9c-170" target="FnQT5Xd33c4sn3bjLJ9c-179">
          <mxGeometry relative="1" as="geometry" />
        </mxCell>
        <mxCell id="FnQT5Xd33c4sn3bjLJ9c-170" value="shard1-master" style="shape=cylinder3;whiteSpace=wrap;html=1;boundedLbl=1;backgroundOutline=1;size=15;" vertex="1" parent="1">
          <mxGeometry x="2180" y="530" width="60" height="80" as="geometry" />
        </mxCell>
        <mxCell id="FnQT5Xd33c4sn3bjLJ9c-207" style="edgeStyle=orthogonalEdgeStyle;rounded=0;orthogonalLoop=1;jettySize=auto;html=1;entryX=0.5;entryY=0;entryDx=0;entryDy=0;" edge="1" parent="1" source="FnQT5Xd33c4sn3bjLJ9c-172" target="FnQT5Xd33c4sn3bjLJ9c-175">
          <mxGeometry relative="1" as="geometry" />
        </mxCell>
        <mxCell id="FnQT5Xd33c4sn3bjLJ9c-227" style="edgeStyle=orthogonalEdgeStyle;rounded=0;orthogonalLoop=1;jettySize=auto;html=1;entryX=0.5;entryY=1;entryDx=0;entryDy=0;dashed=1;" edge="1" parent="1" source="FnQT5Xd33c4sn3bjLJ9c-172" target="FnQT5Xd33c4sn3bjLJ9c-220">
          <mxGeometry relative="1" as="geometry">
            <Array as="points">
              <mxPoint x="2380" y="200" />
              <mxPoint x="2730" y="200" />
            </Array>
          </mxGeometry>
        </mxCell>
        <mxCell id="FnQT5Xd33c4sn3bjLJ9c-172" value="pymongo-api" style="rounded=1;whiteSpace=wrap;html=1;" vertex="1" parent="1">
          <mxGeometry x="2320" y="230" width="120" height="60" as="geometry" />
        </mxCell>
        <mxCell id="FnQT5Xd33c4sn3bjLJ9c-173" style="edgeStyle=orthogonalEdgeStyle;rounded=0;orthogonalLoop=1;jettySize=auto;html=1;" edge="1" parent="1" source="FnQT5Xd33c4sn3bjLJ9c-175" target="FnQT5Xd33c4sn3bjLJ9c-170">
          <mxGeometry relative="1" as="geometry" />
        </mxCell>
        <mxCell id="FnQT5Xd33c4sn3bjLJ9c-174" style="edgeStyle=orthogonalEdgeStyle;rounded=0;orthogonalLoop=1;jettySize=auto;html=1;" edge="1" parent="1" source="FnQT5Xd33c4sn3bjLJ9c-175" target="FnQT5Xd33c4sn3bjLJ9c-179">
          <mxGeometry relative="1" as="geometry" />
        </mxCell>
        <mxCell id="FnQT5Xd33c4sn3bjLJ9c-175" value="mongos_router" style="rounded=1;whiteSpace=wrap;html=1;" vertex="1" parent="1">
          <mxGeometry x="2320" y="404" width="120" height="60" as="geometry" />
        </mxCell>
        <mxCell id="FnQT5Xd33c4sn3bjLJ9c-176" style="edgeStyle=orthogonalEdgeStyle;rounded=0;orthogonalLoop=1;jettySize=auto;html=1;entryX=1;entryY=0.5;entryDx=0;entryDy=0;" edge="1" parent="1" source="FnQT5Xd33c4sn3bjLJ9c-177" target="FnQT5Xd33c4sn3bjLJ9c-179">
          <mxGeometry relative="1" as="geometry" />
        </mxCell>
        <mxCell id="FnQT5Xd33c4sn3bjLJ9c-177" value="shard2-master" style="shape=cylinder3;whiteSpace=wrap;html=1;boundedLbl=1;backgroundOutline=1;size=15;" vertex="1" parent="1">
          <mxGeometry x="2510" y="530" width="60" height="80" as="geometry" />
        </mxCell>
        <mxCell id="FnQT5Xd33c4sn3bjLJ9c-178" style="edgeStyle=orthogonalEdgeStyle;rounded=0;orthogonalLoop=1;jettySize=auto;html=1;entryX=0.5;entryY=0;entryDx=0;entryDy=0;entryPerimeter=0;" edge="1" parent="1" source="FnQT5Xd33c4sn3bjLJ9c-175" target="FnQT5Xd33c4sn3bjLJ9c-177">
          <mxGeometry relative="1" as="geometry" />
        </mxCell>
        <mxCell id="FnQT5Xd33c4sn3bjLJ9c-179" value="configSrv1" style="rounded=1;whiteSpace=wrap;html=1;" vertex="1" parent="1">
          <mxGeometry x="2320" y="540" width="120" height="60" as="geometry" />
        </mxCell>
        <mxCell id="FnQT5Xd33c4sn3bjLJ9c-180" style="edgeStyle=orthogonalEdgeStyle;rounded=0;orthogonalLoop=1;jettySize=auto;html=1;" edge="1" parent="1" source="FnQT5Xd33c4sn3bjLJ9c-181" target="FnQT5Xd33c4sn3bjLJ9c-183">
          <mxGeometry relative="1" as="geometry" />
        </mxCell>
        <mxCell id="FnQT5Xd33c4sn3bjLJ9c-181" value="shard1-replica1" style="shape=cylinder3;whiteSpace=wrap;html=1;boundedLbl=1;backgroundOutline=1;size=15;" vertex="1" parent="1">
          <mxGeometry x="2080" y="720" width="60" height="80" as="geometry" />
        </mxCell>
        <mxCell id="FnQT5Xd33c4sn3bjLJ9c-182" style="edgeStyle=orthogonalEdgeStyle;rounded=0;orthogonalLoop=1;jettySize=auto;html=1;" edge="1" parent="1" source="FnQT5Xd33c4sn3bjLJ9c-183" target="FnQT5Xd33c4sn3bjLJ9c-181">
          <mxGeometry relative="1" as="geometry" />
        </mxCell>
        <mxCell id="FnQT5Xd33c4sn3bjLJ9c-183" value="shard1-replica2" style="shape=cylinder3;whiteSpace=wrap;html=1;boundedLbl=1;backgroundOutline=1;size=15;" vertex="1" parent="1">
          <mxGeometry x="2180" y="720" width="60" height="80" as="geometry" />
        </mxCell>
        <mxCell id="FnQT5Xd33c4sn3bjLJ9c-184" style="edgeStyle=orthogonalEdgeStyle;rounded=0;orthogonalLoop=1;jettySize=auto;html=1;" edge="1" parent="1" source="FnQT5Xd33c4sn3bjLJ9c-185" target="FnQT5Xd33c4sn3bjLJ9c-183">
          <mxGeometry relative="1" as="geometry" />
        </mxCell>
        <mxCell id="FnQT5Xd33c4sn3bjLJ9c-185" value="shard1-replica3" style="shape=cylinder3;whiteSpace=wrap;html=1;boundedLbl=1;backgroundOutline=1;size=15;" vertex="1" parent="1">
          <mxGeometry x="2280" y="720" width="60" height="80" as="geometry" />
        </mxCell>
        <mxCell id="FnQT5Xd33c4sn3bjLJ9c-186" style="edgeStyle=orthogonalEdgeStyle;rounded=0;orthogonalLoop=1;jettySize=auto;html=1;entryX=0;entryY=0.5;entryDx=0;entryDy=0;entryPerimeter=0;" edge="1" parent="1" source="FnQT5Xd33c4sn3bjLJ9c-183" target="FnQT5Xd33c4sn3bjLJ9c-185">
          <mxGeometry relative="1" as="geometry" />
        </mxCell>
        <mxCell id="FnQT5Xd33c4sn3bjLJ9c-187" style="edgeStyle=orthogonalEdgeStyle;rounded=0;orthogonalLoop=1;jettySize=auto;html=1;entryX=0.5;entryY=1;entryDx=0;entryDy=0;entryPerimeter=0;" edge="1" parent="1" source="FnQT5Xd33c4sn3bjLJ9c-183" target="FnQT5Xd33c4sn3bjLJ9c-170">
          <mxGeometry relative="1" as="geometry" />
        </mxCell>
        <mxCell id="FnQT5Xd33c4sn3bjLJ9c-188" style="edgeStyle=orthogonalEdgeStyle;rounded=0;orthogonalLoop=1;jettySize=auto;html=1;entryX=0.5;entryY=1;entryDx=0;entryDy=0;entryPerimeter=0;" edge="1" parent="1" source="FnQT5Xd33c4sn3bjLJ9c-185" target="FnQT5Xd33c4sn3bjLJ9c-170">
          <mxGeometry relative="1" as="geometry">
            <Array as="points">
              <mxPoint x="2310" y="700" />
              <mxPoint x="2210" y="700" />
            </Array>
          </mxGeometry>
        </mxCell>
        <mxCell id="FnQT5Xd33c4sn3bjLJ9c-189" style="edgeStyle=orthogonalEdgeStyle;rounded=0;orthogonalLoop=1;jettySize=auto;html=1;entryX=0.5;entryY=1;entryDx=0;entryDy=0;entryPerimeter=0;" edge="1" parent="1" source="FnQT5Xd33c4sn3bjLJ9c-181" target="FnQT5Xd33c4sn3bjLJ9c-170">
          <mxGeometry relative="1" as="geometry">
            <Array as="points">
              <mxPoint x="2110" y="700" />
              <mxPoint x="2210" y="700" />
            </Array>
          </mxGeometry>
        </mxCell>
        <mxCell id="FnQT5Xd33c4sn3bjLJ9c-190" style="edgeStyle=orthogonalEdgeStyle;rounded=0;orthogonalLoop=1;jettySize=auto;html=1;" edge="1" parent="1" source="FnQT5Xd33c4sn3bjLJ9c-191" target="FnQT5Xd33c4sn3bjLJ9c-193">
          <mxGeometry relative="1" as="geometry" />
        </mxCell>
        <mxCell id="FnQT5Xd33c4sn3bjLJ9c-191" value="shard2-replica1" style="shape=cylinder3;whiteSpace=wrap;html=1;boundedLbl=1;backgroundOutline=1;size=15;" vertex="1" parent="1">
          <mxGeometry x="2410" y="720" width="60" height="80" as="geometry" />
        </mxCell>
        <mxCell id="FnQT5Xd33c4sn3bjLJ9c-192" style="edgeStyle=orthogonalEdgeStyle;rounded=0;orthogonalLoop=1;jettySize=auto;html=1;" edge="1" parent="1" source="FnQT5Xd33c4sn3bjLJ9c-193" target="FnQT5Xd33c4sn3bjLJ9c-191">
          <mxGeometry relative="1" as="geometry" />
        </mxCell>
        <mxCell id="FnQT5Xd33c4sn3bjLJ9c-193" value="shard2-replica2" style="shape=cylinder3;whiteSpace=wrap;html=1;boundedLbl=1;backgroundOutline=1;size=15;" vertex="1" parent="1">
          <mxGeometry x="2510" y="720" width="60" height="80" as="geometry" />
        </mxCell>
        <mxCell id="FnQT5Xd33c4sn3bjLJ9c-194" style="edgeStyle=orthogonalEdgeStyle;rounded=0;orthogonalLoop=1;jettySize=auto;html=1;" edge="1" parent="1" source="FnQT5Xd33c4sn3bjLJ9c-195" target="FnQT5Xd33c4sn3bjLJ9c-193">
          <mxGeometry relative="1" as="geometry" />
        </mxCell>
        <mxCell id="FnQT5Xd33c4sn3bjLJ9c-195" value="shard2-replica3" style="shape=cylinder3;whiteSpace=wrap;html=1;boundedLbl=1;backgroundOutline=1;size=15;" vertex="1" parent="1">
          <mxGeometry x="2610" y="720" width="60" height="80" as="geometry" />
        </mxCell>
        <mxCell id="FnQT5Xd33c4sn3bjLJ9c-196" style="edgeStyle=orthogonalEdgeStyle;rounded=0;orthogonalLoop=1;jettySize=auto;html=1;entryX=0;entryY=0.5;entryDx=0;entryDy=0;entryPerimeter=0;" edge="1" parent="1" source="FnQT5Xd33c4sn3bjLJ9c-193" target="FnQT5Xd33c4sn3bjLJ9c-195">
          <mxGeometry relative="1" as="geometry" />
        </mxCell>
        <mxCell id="FnQT5Xd33c4sn3bjLJ9c-197" style="edgeStyle=orthogonalEdgeStyle;rounded=0;orthogonalLoop=1;jettySize=auto;html=1;entryX=0.5;entryY=1;entryDx=0;entryDy=0;entryPerimeter=0;" edge="1" parent="1" source="FnQT5Xd33c4sn3bjLJ9c-195">
          <mxGeometry relative="1" as="geometry">
            <mxPoint x="2540" y="610" as="targetPoint" />
            <Array as="points">
              <mxPoint x="2640" y="700" />
              <mxPoint x="2540" y="700" />
            </Array>
          </mxGeometry>
        </mxCell>
        <mxCell id="FnQT5Xd33c4sn3bjLJ9c-198" style="edgeStyle=orthogonalEdgeStyle;rounded=0;orthogonalLoop=1;jettySize=auto;html=1;entryX=0.5;entryY=1;entryDx=0;entryDy=0;entryPerimeter=0;" edge="1" parent="1" source="FnQT5Xd33c4sn3bjLJ9c-191">
          <mxGeometry relative="1" as="geometry">
            <mxPoint x="2540" y="610" as="targetPoint" />
            <Array as="points">
              <mxPoint x="2440" y="700" />
              <mxPoint x="2540" y="700" />
            </Array>
          </mxGeometry>
        </mxCell>
        <mxCell id="FnQT5Xd33c4sn3bjLJ9c-199" style="edgeStyle=orthogonalEdgeStyle;rounded=0;orthogonalLoop=1;jettySize=auto;html=1;entryX=0.5;entryY=1;entryDx=0;entryDy=0;" edge="1" parent="1" source="FnQT5Xd33c4sn3bjLJ9c-201" target="FnQT5Xd33c4sn3bjLJ9c-179">
          <mxGeometry relative="1" as="geometry">
            <Array as="points">
              <mxPoint x="2300" y="620" />
              <mxPoint x="2380" y="620" />
            </Array>
          </mxGeometry>
        </mxCell>
        <mxCell id="FnQT5Xd33c4sn3bjLJ9c-200" style="edgeStyle=orthogonalEdgeStyle;rounded=0;orthogonalLoop=1;jettySize=auto;html=1;" edge="1" parent="1" source="FnQT5Xd33c4sn3bjLJ9c-201" target="FnQT5Xd33c4sn3bjLJ9c-204">
          <mxGeometry relative="1" as="geometry" />
        </mxCell>
        <mxCell id="FnQT5Xd33c4sn3bjLJ9c-201" value="configSrv1" style="rounded=1;whiteSpace=wrap;html=1;" vertex="1" parent="1">
          <mxGeometry x="2270" y="630" width="60" height="60" as="geometry" />
        </mxCell>
        <mxCell id="FnQT5Xd33c4sn3bjLJ9c-202" style="edgeStyle=orthogonalEdgeStyle;rounded=0;orthogonalLoop=1;jettySize=auto;html=1;entryX=0.5;entryY=1;entryDx=0;entryDy=0;" edge="1" parent="1" source="FnQT5Xd33c4sn3bjLJ9c-204" target="FnQT5Xd33c4sn3bjLJ9c-179">
          <mxGeometry relative="1" as="geometry">
            <Array as="points">
              <mxPoint x="2430" y="620" />
              <mxPoint x="2380" y="620" />
            </Array>
          </mxGeometry>
        </mxCell>
        <mxCell id="FnQT5Xd33c4sn3bjLJ9c-203" style="edgeStyle=orthogonalEdgeStyle;rounded=0;orthogonalLoop=1;jettySize=auto;html=1;" edge="1" parent="1" source="FnQT5Xd33c4sn3bjLJ9c-204">
          <mxGeometry relative="1" as="geometry">
            <mxPoint x="2330" y="660" as="targetPoint" />
          </mxGeometry>
        </mxCell>
        <mxCell id="FnQT5Xd33c4sn3bjLJ9c-204" value="configSrv2" style="rounded=1;whiteSpace=wrap;html=1;" vertex="1" parent="1">
          <mxGeometry x="2400" y="630" width="60" height="60" as="geometry" />
        </mxCell>
        <mxCell id="FnQT5Xd33c4sn3bjLJ9c-206" value="redis" style="rounded=1;whiteSpace=wrap;html=1;" vertex="1" parent="1">
          <mxGeometry x="2660" y="300" width="120" height="60" as="geometry" />
        </mxCell>
        <mxCell id="FnQT5Xd33c4sn3bjLJ9c-222" style="edgeStyle=orthogonalEdgeStyle;rounded=0;orthogonalLoop=1;jettySize=auto;html=1;" edge="1" parent="1" source="FnQT5Xd33c4sn3bjLJ9c-208" target="FnQT5Xd33c4sn3bjLJ9c-210">
          <mxGeometry relative="1" as="geometry" />
        </mxCell>
        <mxCell id="FnQT5Xd33c4sn3bjLJ9c-223" style="edgeStyle=orthogonalEdgeStyle;rounded=0;orthogonalLoop=1;jettySize=auto;html=1;" edge="1" parent="1" source="FnQT5Xd33c4sn3bjLJ9c-208" target="FnQT5Xd33c4sn3bjLJ9c-172">
          <mxGeometry relative="1" as="geometry" />
        </mxCell>
        <mxCell id="FnQT5Xd33c4sn3bjLJ9c-224" style="edgeStyle=orthogonalEdgeStyle;rounded=0;orthogonalLoop=1;jettySize=auto;html=1;" edge="1" parent="1" source="FnQT5Xd33c4sn3bjLJ9c-208" target="FnQT5Xd33c4sn3bjLJ9c-211">
          <mxGeometry relative="1" as="geometry" />
        </mxCell>
        <mxCell id="FnQT5Xd33c4sn3bjLJ9c-225" style="edgeStyle=orthogonalEdgeStyle;rounded=0;orthogonalLoop=1;jettySize=auto;html=1;" edge="1" parent="1" source="FnQT5Xd33c4sn3bjLJ9c-208" target="FnQT5Xd33c4sn3bjLJ9c-220">
          <mxGeometry relative="1" as="geometry" />
        </mxCell>
        <mxCell id="FnQT5Xd33c4sn3bjLJ9c-208" value="APISIX" style="rounded=1;whiteSpace=wrap;html=1;" vertex="1" parent="1">
          <mxGeometry x="2320" y="120" width="120" height="60" as="geometry" />
        </mxCell>
        <mxCell id="FnQT5Xd33c4sn3bjLJ9c-221" style="edgeStyle=orthogonalEdgeStyle;rounded=0;orthogonalLoop=1;jettySize=auto;html=1;entryX=0.5;entryY=0;entryDx=0;entryDy=0;" edge="1" parent="1" source="FnQT5Xd33c4sn3bjLJ9c-209" target="FnQT5Xd33c4sn3bjLJ9c-208">
          <mxGeometry relative="1" as="geometry" />
        </mxCell>
        <mxCell id="FnQT5Xd33c4sn3bjLJ9c-209" value="CDN" style="rounded=1;whiteSpace=wrap;html=1;" vertex="1" parent="1">
          <mxGeometry x="2320" y="10" width="120" height="60" as="geometry" />
        </mxCell>
        <mxCell id="FnQT5Xd33c4sn3bjLJ9c-217" style="edgeStyle=orthogonalEdgeStyle;rounded=0;orthogonalLoop=1;jettySize=auto;html=1;entryX=0.5;entryY=0;entryDx=0;entryDy=0;" edge="1" parent="1" source="FnQT5Xd33c4sn3bjLJ9c-210" target="FnQT5Xd33c4sn3bjLJ9c-175">
          <mxGeometry relative="1" as="geometry">
            <Array as="points">
              <mxPoint x="2220" y="330" />
              <mxPoint x="2380" y="330" />
            </Array>
          </mxGeometry>
        </mxCell>
        <mxCell id="FnQT5Xd33c4sn3bjLJ9c-219" style="edgeStyle=orthogonalEdgeStyle;rounded=0;orthogonalLoop=1;jettySize=auto;html=1;entryX=0;entryY=0.5;entryDx=0;entryDy=0;" edge="1" parent="1" source="FnQT5Xd33c4sn3bjLJ9c-210" target="FnQT5Xd33c4sn3bjLJ9c-206">
          <mxGeometry relative="1" as="geometry">
            <Array as="points">
              <mxPoint x="2220" y="330" />
            </Array>
          </mxGeometry>
        </mxCell>
        <mxCell id="FnQT5Xd33c4sn3bjLJ9c-229" style="edgeStyle=orthogonalEdgeStyle;rounded=0;orthogonalLoop=1;jettySize=auto;html=1;dashed=1;" edge="1" parent="1" source="FnQT5Xd33c4sn3bjLJ9c-210" target="FnQT5Xd33c4sn3bjLJ9c-220">
          <mxGeometry relative="1" as="geometry">
            <Array as="points">
              <mxPoint x="2220" y="200" />
              <mxPoint x="2730" y="200" />
            </Array>
          </mxGeometry>
        </mxCell>
        <mxCell id="FnQT5Xd33c4sn3bjLJ9c-210" value="pymongo-api" style="rounded=1;whiteSpace=wrap;html=1;" vertex="1" parent="1">
          <mxGeometry x="2160" y="230" width="120" height="60" as="geometry" />
        </mxCell>
        <mxCell id="FnQT5Xd33c4sn3bjLJ9c-218" style="edgeStyle=orthogonalEdgeStyle;rounded=0;orthogonalLoop=1;jettySize=auto;html=1;entryX=0.5;entryY=0;entryDx=0;entryDy=0;" edge="1" parent="1" source="FnQT5Xd33c4sn3bjLJ9c-211" target="FnQT5Xd33c4sn3bjLJ9c-175">
          <mxGeometry relative="1" as="geometry">
            <Array as="points">
              <mxPoint x="2550" y="330" />
              <mxPoint x="2380" y="330" />
            </Array>
          </mxGeometry>
        </mxCell>
        <mxCell id="FnQT5Xd33c4sn3bjLJ9c-228" style="edgeStyle=orthogonalEdgeStyle;rounded=0;orthogonalLoop=1;jettySize=auto;html=1;entryX=0.5;entryY=1;entryDx=0;entryDy=0;dashed=1;" edge="1" parent="1" source="FnQT5Xd33c4sn3bjLJ9c-211" target="FnQT5Xd33c4sn3bjLJ9c-220">
          <mxGeometry relative="1" as="geometry">
            <Array as="points">
              <mxPoint x="2550" y="200" />
              <mxPoint x="2730" y="200" />
            </Array>
          </mxGeometry>
        </mxCell>
        <mxCell id="FnQT5Xd33c4sn3bjLJ9c-211" value="pymongo-api" style="rounded=1;whiteSpace=wrap;html=1;" vertex="1" parent="1">
          <mxGeometry x="2490" y="230" width="120" height="60" as="geometry" />
        </mxCell>
        <mxCell id="FnQT5Xd33c4sn3bjLJ9c-220" value="consul" style="rounded=1;whiteSpace=wrap;html=1;" vertex="1" parent="1">
          <mxGeometry x="2670" y="120" width="120" height="60" as="geometry" />
        </mxCell>
      </root>
    </mxGraphModel>
  </diagram>
</mxfile>
